# xmcd
#
# Track frame offsets:
#	150
#	15345
#	28955
#	46055
#	64360
#	79562
#	94987
#	113617
#	127875
#	141797
#	156800
#	168675
#	182465
#	195992
#
# Disc length: 3037
#
# Revision: 1
# Processed by: cddbd v1.5.1PL0 Copyright (c) Steve Scherf et al.
# Submitted via: VisiTrax 2.9.3.171 - For more info visit www.synapsa.com
# Normalized: r0:DSETVAR1
#
DISCID=ac0bdb0e
DTITLE=Various Artist - Mr Music Country 11-00
DYEAR=1900
DGENRE=
TTITLE0=Brad Paisley - Sleepin' On The Foldout
TTITLE1=Deborah Allen - Blame It On The Heart
TTITLE2=Brooks and Dunn - Texas And Norma Jean
TTITLE3=Kathy Kallick - Griddle In The Middle
TTITLE4=Jason Sellers - That's Not Her Picture
TTITLE5=Sherrie Austin - Good Love Comin' On
TTITLE6=The Johnny Staats Project with Sara Evans - Timbuktu
TTITLE7=Blackhawk - There You Have It
TTITLE8=The Roger Springer Band with Merle Haggard - We Owe Them Much More Than That
TTITLE9=Pam Tillis - Whiskey On The Wound
TTITLE10=Waylon Jennings - You Ask Me
TTITLE11=Brian Burns - Highways, Heartaches and Honkytonks
TTITLE12=Tracy Byrd - Undo The Right
TTITLE13=Alan Jackson - The Blues Man (A Tribute To Hank Williams Jr.)
EXTD=
EXTT0=
EXTT1=
EXTT2=
EXTT3=
EXTT4=
EXTT5=
EXTT6=
EXTT7=
EXTT8=
EXTT9=
EXTT10=
EXTT11=
EXTT12=
EXTT13=
PLAYORDER=
